<?xml version="1.0" encoding="UTF-8"?>
<svg id="Layer_2" data-name="Layer 2" xmlns="http://www.w3.org/2000/svg" xmlns:xlink="http://www.w3.org/1999/xlink" viewBox="0 0 115.3 30">
  <defs>
    <style>
      .cls-1 {
        clip-path: url(#clippath);
      }

      .cls-2 {
        fill: none;
      }

      .cls-2, .cls-3 {
        stroke-width: 0px;
      }

      .cls-4 {
        clip-path: url(#clippath-1);
      }

      .cls-3 {
        fill: #fff;
      }
    </style>
    <clipPath id="clippath">
      <rect class="cls-2" width="31.5" height="30"/>
    </clipPath>
    <clipPath id="clippath-1">
      <rect class="cls-2" x="16.3" y="17.1" width="12.7" height="12.6"/>
    </clipPath>
  </defs>
  <g id="Layer_1-2" data-name="Layer 1">
    <g>
      <g class="cls-1">
        <path class="cls-3" d="M16.2,15.1l-1.1-1.2c-3.2-3.5-6.5-2.1-6.5-2.1,0,0,1.2.3,2.2,1.2.8.7.8,2.1.1,2.9l.2.2-6.3,6.9,1.6,1.7,6.3-6.9.2.2.8-.9c.1,0,.2.2.3.3.1.2.4.2.5,0l1.7-1.9c.1-.2.1-.4,0-.6v.2ZM17.6,16.5l-.5-.6c-.2-.2-.5-.2-.7,0l-1.5,1.7c-.2.2-.2.6,0,.8l.5.6c.2.2.5.2.7,0l1.5-1.7c.2-.2.2-.6,0-.8ZM.7,27.2c-.6.6-.6,1.6,0,2.2s1.5.6,2,0l3.6-4.2-1.6-1.8-3.9,3.9"/>
      </g>
      <path class="cls-3" d="M12.7,25.7h-2.3v-2.3h2.3v2.3"/>
      <g class="cls-4">
        <path class="cls-3" d="M24.6,24.7v-2.8l.5-.4-2.3-1.5v3.4l-.2-.2v-.7l-4.7-5.1-1.3,1.4,9.8,10.8h2.6l-4.4-4.8"/>
      </g>
      <path class="cls-3" d="M31.1,19.3c-.5,0-1,0-1.4-.3-.4-.2-.8-.4-1-.8l1-1.1c.4.5.9.8,1.4.8s1.1-.4,1.1-1.2v-3.4h-2.6v-1.3h4.4v4.6c0,.9-.2,1.5-.7,2-.5.4-1.1.6-2,.6h-.2v.1Z"/>
      <path class="cls-3" d="M39.1,19.3c-.8,0-1.5-.2-2.1-.5s-1.1-.8-1.5-1.3c-.4-.6-.5-1.2-.5-1.9s.2-1.3.5-1.9c.4-.6.8-1,1.5-1.3.6-.3,1.3-.5,2.1-.5s1.2,0,1.8.3c.5.2,1,.5,1.3.9l-1.1,1c-.5-.5-1.1-.8-1.9-.8s-.9,0-1.2.3c-.4.2-.7.5-.9.8s-.3.7-.3,1.2.1.8.3,1.2c.2.3.5.6.9.8.4.2.8.3,1.2.3.7,0,1.4-.3,1.9-.8l1.1,1c-.4.4-.8.7-1.3.9-.5.2-1.1.3-1.8.3Z"/>
      <path class="cls-3" d="M50,19.3c-.8,0-1.5-.2-2.1-.5s-1.1-.8-1.5-1.3c-.4-.6-.5-1.2-.5-1.9s.2-1.3.5-1.9c.4-.6.8-1,1.5-1.3.6-.3,1.3-.5,2.1-.5s1.2,0,1.8.3c.5.2,1,.5,1.3.9l-1.1,1c-.5-.5-1.1-.8-1.9-.8s-.9,0-1.2.3c-.4.2-.7.5-.9.8s-.3.7-.3,1.2.1.8.3,1.2c.2.3.5.6.9.8.4.2.8.3,1.2.3.7,0,1.4-.3,1.9-.8l1.1,1c-.4.4-.8.7-1.3.9-.5.2-1.1.3-1.8.3Z"/>
      <path class="cls-3" d="M59.3,17.6h-3.5l-.7,1.5h-1.8l3.4-7h1.7l3.4,7h-1.8l-.7-1.5h0ZM58.7,16.4l-1.2-2.7-1.2,2.7h2.4Z"/>
      <path class="cls-3" d="M67.3,19.1l-1.5-2h-1.6v2h-1.7v-7h3.3c.7,0,1.2,0,1.7.3.5.2.9.5,1.1.9.3.4.4.8.4,1.4s-.1,1-.4,1.4c-.3.4-.6.7-1.1.9l1.7,2.3h-1.9v-.2h0ZM67.3,14.7c0-.4-.1-.7-.4-.9-.3-.2-.7-.3-1.2-.3h-1.4v2.5h1.4c.5,0,.9,0,1.2-.3.3-.2.4-.5.4-.9h0v-.1Z"/>
      <path class="cls-3" d="M73.7,12.1c.7,0,1.2,0,1.7.3.5.2.9.5,1.1.9.3.4.4.8.4,1.4s-.1,1-.4,1.4c-.3.4-.6.7-1.1.9-.5.2-1.1.3-1.7.3h-1.5v1.9h-1.7v-7h3.3-.1v-.1ZM73.6,15.9c.5,0,.9,0,1.2-.3.3-.2.4-.5.4-.9s-.1-.7-.4-.9c-.3-.2-.7-.3-1.2-.3h-1.4v2.4s1.4,0,1.4,0Z"/>
      <path class="cls-3" d="M84.1,17.8v1.3h-5.8v-7h5.7v1.3h-4v1.5h3.5v1.3h-3.5v1.6s4.1,0,4.1,0Z"/>
      <path class="cls-3" d="M92.4,12.1v7h-1.4l-3.8-4.3v4.3h-1.7v-7h1.4l3.7,4.3v-4.3h1.8Z"/>
      <path class="cls-3" d="M95.8,13.4h-2.4v-1.3h6.6v1.3h-2.4v5.7h-1.7v-5.7h-.1Z"/>
      <path class="cls-3" d="M105.7,19.1l-1.5-2h-1.6v2h-1.7v-7h3.3c.7,0,1.2,0,1.7.3.5.2.9.5,1.1.9.3.4.4.8.4,1.4s-.1,1-.4,1.4c-.3.4-.6.7-1.1.9l1.7,2.3h-1.9v-.2h0ZM105.6,14.7c0-.4-.1-.7-.4-.9-.3-.2-.7-.3-1.2-.3h-1.4v2.5h1.4c.5,0,.9,0,1.2-.3.3-.2.4-.5.4-.9h0v-.1Z"/>
      <path class="cls-3" d="M112.4,16.7v2.5h-1.7v-2.5l-2.9-4.5h1.8l2,3.1,2-3.1h1.7l-2.9,4.6h0v-.1Z"/>
      <path class="cls-3" d="M53.2,28.9l-.8-1.1h-.9v1.1h-1v-4h1.9c.4,0,.7,0,1,.2.3,0,.5.3.6.5.2.2.2.5.2.8s0,.6-.2.8c-.2.2-.4.4-.6.5l1,1.3h-1.2v-.1ZM53.1,26.4c0-.2,0-.4-.2-.5s-.4-.2-.7-.2h-.8v1.4h.8c.3,0,.5,0,.7-.2.2,0,.2-.3.2-.5Z"/>
      <path class="cls-3" d="M58.2,28.2v.7h-3.3v-4h3.2v.7h-2.2v.9h2v.7h-2v.9h2.3v.1Z"/>
      <path class="cls-3" d="M62.9,28.9v-2.4l-1.3,2h-.5l-1.2-1.9v2.3h-.9v-4h.8l1.6,2.5,1.6-2.5h.8v4h-.9Z"/>
      <path class="cls-3" d="M66.9,29c-.4,0-.8,0-1.2-.3-.4-.2-.6-.4-.8-.7-.2-.3-.3-.7-.3-1.1s.1-.8.3-1.1c.2-.3.5-.6.8-.7.4-.2.8-.3,1.2-.3s.8,0,1.2.3c.4.2.6.4.8.7.2.3.3.7.3,1.1s-.1.7-.3,1.1c-.2.3-.5.6-.8.7-.4.2-.8.3-1.2.3ZM66.9,28.2c.2,0,.5,0,.7-.2.2,0,.4-.3.5-.5s.2-.4.2-.7,0-.5-.2-.7c-.1-.2-.3-.3-.5-.5-.2,0-.4-.2-.7-.2s-.5,0-.7.2c-.2,0-.4.3-.5.5s-.2.4-.2.7,0,.5.2.7c.1.2.3.3.5.5.2,0,.4.2.7.2Z"/>
      <path class="cls-3" d="M70,24.9h1.9c.5,0,.9,0,1.2.3.4.2.6.4.8.7.2.3.3.7.3,1.1s-.1.7-.3,1.1c-.2.3-.5.5-.8.7-.4.2-.8.2-1.2.2h-1.9v-4h0v-.1ZM71.9,28.2c.4,0,.8,0,1-.3.3-.2.4-.5.4-.9s-.1-.7-.4-.9c-.3-.2-.6-.3-1-.3h-.9v2.5h.9v-.1Z"/>
      <path class="cls-3" d="M78.4,28.2v.7h-3.3v-4h3.2v.7h-2.2v.9h2v.7h-2v.9h2.3v.1Z"/>
      <path class="cls-3" d="M79.2,24.9h1v3.2h2.1v.8h-3.1v-4Z"/>
      <path class="cls-3" d="M82.9,24.9h1v4h-1v-4Z"/>
      <path class="cls-3" d="M88.8,24.9v4h-.8l-2.1-2.4v2.4h-1v-4h.8l2.1,2.4v-2.4h1Z"/>
      <path class="cls-3" d="M92.7,26.9h.9v1.6c-.2.2-.5.3-.8.4h-.9c-.3,0-.8,0-1.2-.3-.4-.2-.6-.4-.8-.7-.2-.3-.3-.7-.3-1.1s.1-.8.3-1.1c.2-.3.5-.6.8-.7.4-.2.8-.3,1.2-.3s.7,0,1,.2c.3,0,.6.3.8.5l-.6.5c-.3-.3-.7-.4-1.1-.4s-.5,0-.7.2c-.2,0-.4.3-.5.4-.1.2-.2.4-.2.7s0,.5.2.7c.1.2.3.3.5.5.2,0,.4.2.7.2s.5,0,.8-.2v-1.2h0l-.1.1Z"/>
      <path class="cls-3" d="M15.7,28.8h-2.3v-2.3h2.3v2.3"/>
      <path class="cls-3" d="M15.7,25.7h-2.3v-2.3h2.3v2.3"/>
      <path class="cls-3" d="M12.7,28.8h-2.3v-2.3h2.3v2.3"/>
    </g>
  </g>
</svg>