<?xml version="1.0" encoding="UTF-8"?>
<svg id="Layer_2" data-name="Layer 2" xmlns="http://www.w3.org/2000/svg" viewBox="0 0 55.04 21.48">
  <defs>
    <style>
      .cls-1 {
        fill: #000;
        stroke-width: 0px;
      }
    </style>
  </defs>
  <g id="Layer_1-2" data-name="Layer 1">
    <path class="cls-1" d="M7.78,21.03C6.45,18.92.95,2.7.02.65c-.07-.21,0-.26.44-.27.88,0,2.65,0,3.43,0,.47.02.73-.02.88.44.44,1.29,2.23,6.56,3.39,9.98.54,1.56.91,2.74,1.03,2.98,1.22-2.57,3.91-11.52,4.53-12.99.16-.46.45-.39.92-.41.8,0,2.56,0,3.45,0,.45.02.44.1.34.37-.86,2.31-6.64,17.9-7.42,19.99-.15.61-2.66.26-3.23.28ZM34.2,21c-.79-1.71-2.42-9.53-2.94-11.15-.03-.09-.07-.32-.13-.19-.68,2.52-2.44,9.75-2.8,11.04-.17.5-.54.34-1.05.38-.64,0-1.65,0-2.38,0-.6-.04-.94.1-1.28-.14-.56-1.88-3.88-15.45-5.12-20.27-.1-.4.35-.25.98-.29.91,0,2.26,0,2.92,0,.47.01.67.02.75.49.53,2.17,2.48,11.76,3.04,13.59,1.23-3.93,2.26-9.7,3.31-13.69.12-.69,2.15-.29,2.72-.37.73-.03.6.61.79,1.19.91,3.65,2.02,9.16,3.07,12.88.94-2.53,2.37-11.82,3.31-14.01.95-.17,2.65-.03,3.67-.07.76.02.82,0,.71.41-.71,2.56-4.48,18.38-5.15,20.21-1.16.15-3.22.14-4.43,0ZM48.77,0c1.76.01,3.83.54,5.22,1.61.7.81-.51,2.47-.86,3.29-.57.93-1.24.13-2.11-.15-.79-.31-1.7-.52-2.5-.35-2.2.51-1.72,2.78.06,3.6,2.36,1.31,5.7,2.57,6.35,5.9.95,5.81-4.44,8.34-8.7,7.38-1.69-.36-3.61-.99-4.81-2.42-.22-.7.26-1.22.69-2.11.38-.6.76-1.95,1.59-1.5,1.65,1.16,4.23,2.63,6.05,1.15,1.99-2.57-2.26-3.93-3.75-4.91C40.21,8.29,42.84-.02,48.77,0Z"/>
  </g>
</svg>