<?xml version="1.0" encoding="UTF-8"?>
<svg id="Layer_2" data-name="Layer 2" xmlns="http://www.w3.org/2000/svg" viewBox="0 0 98.03 38.05">
  <defs>
    <style>
      .cls-1 {
        fill: #000;
        stroke-width: 0px;
      }
    </style>
  </defs>
  <g id="Layer_1-2" data-name="Layer 1">
    <path class="cls-1" d="M13.85,37.25C11.49,33.52,1.7,4.78.04,1.16c-.12-.36-.01-.45.79-.48,1.56-.02,4.72-.02,6.1,0,.83.04,1.3-.04,1.57.77.79,2.28,3.97,11.61,6.04,17.68.96,2.77,1.63,4.85,1.83,5.28,2.17-4.55,6.96-20.41,8.07-23.01.29-.81.79-.68,1.63-.73,1.43,0,4.57-.02,6.15.01.81.03.78.17.6.66-1.53,4.1-11.83,31.71-13.22,35.41-.27,1.08-4.74.46-5.75.5ZM60.91,37.21c-1.41-3.03-4.31-16.89-5.24-19.76-.05-.16-.12-.56-.23-.33-1.21,4.46-4.35,17.28-4.98,19.55-.31.89-.96.6-1.86.68-1.14,0-2.93,0-4.24,0-1.07-.07-1.68.18-2.28-.24-1-3.33-6.91-27.36-9.12-35.91-.18-.71.63-.44,1.75-.51,1.62,0,4.03,0,5.19,0,.84.02,1.19.03,1.34.87.94,3.84,4.42,20.84,5.42,24.07,2.19-6.96,4.03-17.18,5.89-24.25.21-1.22,3.83-.52,4.84-.66,1.3-.05,1.08,1.07,1.41,2.12,1.62,6.46,3.6,16.23,5.48,22.81,1.68-4.49,4.22-20.95,5.89-24.82,1.69-.3,4.71-.05,6.53-.13,1.36.03,1.46-.02,1.26.72-1.27,4.54-7.98,32.55-9.17,35.8-2.06.27-5.73.25-7.89,0ZM86.87,0c3.13.02,6.82.95,9.3,2.86,1.25,1.43-.91,4.37-1.53,5.83-1.01,1.65-2.2.22-3.76-.26-1.4-.54-3.02-.91-4.45-.62-3.92.9-3.06,4.92.1,6.37,4.21,2.33,10.16,4.56,11.31,10.45,1.7,10.3-7.9,14.77-15.5,13.08-3.01-.64-6.42-1.76-8.56-4.29-.4-1.24.47-2.17,1.23-3.74.68-1.05,1.35-3.46,2.83-2.66,2.93,2.06,7.53,4.65,10.78,2.03,3.55-4.55-4.02-6.96-6.67-8.7C71.62,14.69,76.3-.03,86.87,0Z"/>
  </g>
</svg>