<svg xmlns="http://www.w3.org/2000/svg" xmlns:xlink="http://www.w3.org/1999/xlink" width="500" zoomAndPan="magnify" viewBox="0 184 36"  height="500" preserveAspectRatio="xMidYMid meet" version="1.0"><defs><g/><clipPath id="d071cc4beb"><path d="M 81.421875 152 L 129 152 L 129 196.761719 L 81.421875 196.761719 Z M 81.421875 152 " clip-rule="nonzero"/></clipPath><clipPath id="474728a8bf"><path d="M 104 191 L 110 191 L 110 196.761719 L 104 196.761719 Z M 104 191 " clip-rule="nonzero"/></clipPath><clipPath id="e63536955f"><path d="M 111 191 L 117 191 L 117 196.761719 L 111 196.761719 Z M 111 191 " clip-rule="nonzero"/></clipPath><clipPath id="c3500a482f"><path d="M 111 168 L 142.921875 168 L 142.921875 196.761719 L 111 196.761719 Z M 111 168 " clip-rule="nonzero"/></clipPath></defs><g clip-path="url(#d071cc4beb)"><path fill="#ffffff" d="M 124.363281 160.742188 L 121.574219 157.953125 C 113.152344 149.53125 104.300781 152.890625 104.191406 152.9375 C 104.191406 152.9375 107.359375 153.664062 109.964844 155.855469 C 112.066406 157.628906 112.1875 160.832031 110.242188 162.777344 L 110.746094 163.277344 L 93.996094 180.027344 L 98.21875 184.253906 L 114.972656 167.503906 L 115.472656 168.007812 L 117.558594 165.921875 C 117.871094 166.230469 118.15625 166.507812 118.390625 166.738281 C 118.78125 167.109375 119.398438 167.105469 119.78125 166.722656 L 124.363281 162.140625 C 124.75 161.753906 124.75 161.128906 124.363281 160.742188 Z M 127.894531 164.273438 L 126.519531 162.898438 C 126.003906 162.382812 125.171875 162.382812 124.65625 162.898438 L 120.601562 166.953125 C 120.085938 167.46875 120.085938 168.304688 120.601562 168.820312 L 121.972656 170.195312 C 122.488281 170.710938 123.324219 170.710938 123.839844 170.195312 L 127.894531 166.140625 C 128.410156 165.625 128.410156 164.789062 127.894531 164.273438 Z M 83.0625 189.992188 C 81.492188 191.402344 81.425781 193.839844 82.917969 195.332031 C 84.410156 196.824219 86.847656 196.757812 88.257812 195.1875 L 97.703125 184.921875 L 93.328125 180.542969 L 83.0625 189.992188 " fill-opacity="1" fill-rule="nonzero"/></g><path fill="#ffffff" d="M 109.4375 190.277344 L 104.886719 190.277344 L 104.886719 185.726562 L 109.4375 185.726562 L 109.4375 190.277344 " fill-opacity="1" fill-rule="nonzero"/><path fill="#ffffff" d="M 116.136719 190.277344 L 111.585938 190.277344 L 111.585938 185.726562 L 116.136719 185.726562 L 116.136719 190.277344 " fill-opacity="1" fill-rule="nonzero"/><g clip-path="url(#474728a8bf)"><path fill="#ffffff" d="M 109.4375 196.410156 L 104.886719 196.410156 L 104.886719 191.859375 L 109.4375 191.859375 L 109.4375 196.410156 " fill-opacity="1" fill-rule="nonzero"/></g><g clip-path="url(#e63536955f)"><path fill="#ffffff" d="M 116.136719 196.410156 L 111.585938 196.410156 L 111.585938 191.859375 L 116.136719 191.859375 L 116.136719 196.410156 " fill-opacity="1" fill-rule="nonzero"/></g><g clip-path="url(#c3500a482f)"><path fill="#ffffff" d="M 131.65625 185.367188 L 131.65625 179.089844 L 132.886719 178.207031 L 127.160156 174.738281 L 127.160156 182.503906 L 126.609375 181.953125 L 126.601562 180.3125 L 114.882812 168.597656 L 111.621094 171.859375 L 136.171875 196.410156 L 142.699219 196.410156 L 131.65625 185.367188 " fill-opacity="1" fill-rule="nonzero"/></g><g fill="#ffffff" fill-opacity="1"><g transform="translate(157.076946, 175.448748)"><g><path d="M 4.09375 0.234375 C 3.175781 0.234375 2.332031 0.0625 1.5625 -0.28125 C 0.800781 -0.625 0.175781 -1.109375 -0.3125 -1.734375 L 1.421875 -3.8125 C 2.160156 -2.820312 3 -2.328125 3.9375 -2.328125 C 5.207031 -2.328125 5.84375 -3.070312 5.84375 -4.5625 L 5.84375 -10.984375 L 1.09375 -10.984375 L 1.09375 -13.5 L 8.953125 -13.5 L 8.953125 -4.75 C 8.953125 -3.082031 8.539062 -1.832031 7.71875 -1 C 6.894531 -0.175781 5.6875 0.234375 4.09375 0.234375 Z M 4.09375 0.234375 "/></g></g></g><g fill="#ffffff" fill-opacity="1"><g transform="translate(167.506015, 175.448748)"><g><path d="M 8.0625 0.234375 C 6.6875 0.234375 5.441406 -0.0625 4.328125 -0.65625 C 3.210938 -1.257812 2.335938 -2.09375 1.703125 -3.15625 C 1.066406 -4.21875 0.75 -5.414062 0.75 -6.75 C 0.75 -8.082031 1.066406 -9.28125 1.703125 -10.34375 C 2.335938 -11.40625 3.210938 -12.234375 4.328125 -12.828125 C 5.441406 -13.429688 6.691406 -13.734375 8.078125 -13.734375 C 9.242188 -13.734375 10.300781 -13.523438 11.25 -13.109375 C 12.195312 -12.703125 12.988281 -12.113281 13.625 -11.34375 L 11.625 -9.484375 C 10.707031 -10.535156 9.578125 -11.0625 8.234375 -11.0625 C 7.398438 -11.0625 6.65625 -10.878906 6 -10.515625 C 5.34375 -10.148438 4.832031 -9.640625 4.46875 -8.984375 C 4.101562 -8.328125 3.921875 -7.582031 3.921875 -6.75 C 3.921875 -5.914062 4.101562 -5.171875 4.46875 -4.515625 C 4.832031 -3.859375 5.34375 -3.34375 6 -2.96875 C 6.65625 -2.601562 7.398438 -2.421875 8.234375 -2.421875 C 9.578125 -2.421875 10.707031 -2.957031 11.625 -4.03125 L 13.625 -2.171875 C 12.988281 -1.390625 12.191406 -0.789062 11.234375 -0.375 C 10.285156 0.03125 9.226562 0.234375 8.0625 0.234375 Z M 8.0625 0.234375 "/></g></g></g><g fill="#ffffff" fill-opacity="1"><g transform="translate(181.636344, 175.448748)"><g/></g></g><g fill="#ffffff" fill-opacity="1"><g transform="translate(187.091845, 175.448748)"><g><path d="M 8.0625 0.234375 C 6.6875 0.234375 5.441406 -0.0625 4.328125 -0.65625 C 3.210938 -1.257812 2.335938 -2.09375 1.703125 -3.15625 C 1.066406 -4.21875 0.75 -5.414062 0.75 -6.75 C 0.75 -8.082031 1.066406 -9.28125 1.703125 -10.34375 C 2.335938 -11.40625 3.210938 -12.234375 4.328125 -12.828125 C 5.441406 -13.429688 6.691406 -13.734375 8.078125 -13.734375 C 9.242188 -13.734375 10.300781 -13.523438 11.25 -13.109375 C 12.195312 -12.703125 12.988281 -12.113281 13.625 -11.34375 L 11.625 -9.484375 C 10.707031 -10.535156 9.578125 -11.0625 8.234375 -11.0625 C 7.398438 -11.0625 6.65625 -10.878906 6 -10.515625 C 5.34375 -10.148438 4.832031 -9.640625 4.46875 -8.984375 C 4.101562 -8.328125 3.921875 -7.582031 3.921875 -6.75 C 3.921875 -5.914062 4.101562 -5.171875 4.46875 -4.515625 C 4.832031 -3.859375 5.34375 -3.34375 6 -2.96875 C 6.65625 -2.601562 7.398438 -2.421875 8.234375 -2.421875 C 9.578125 -2.421875 10.707031 -2.957031 11.625 -4.03125 L 13.625 -2.171875 C 12.988281 -1.390625 12.191406 -0.789062 11.234375 -0.375 C 10.285156 0.03125 9.226562 0.234375 8.0625 0.234375 Z M 8.0625 0.234375 "/></g></g></g><g fill="#ffffff" fill-opacity="1"><g transform="translate(201.222173, 175.448748)"><g><path d="M 10.484375 -2.890625 L 4.21875 -2.890625 L 3.03125 0 L -0.171875 0 L 5.84375 -13.5 L 8.921875 -13.5 L 14.96875 0 L 11.6875 0 Z M 9.5 -5.265625 L 7.359375 -10.4375 L 5.21875 -5.265625 Z M 9.5 -5.265625 "/></g></g></g><g fill="#ffffff" fill-opacity="1"><g transform="translate(215.988655, 175.448748)"><g><path d="M 10.203125 0 L 7.59375 -3.765625 L 4.71875 -3.765625 L 4.71875 0 L 1.59375 0 L 1.59375 -13.5 L 7.4375 -13.5 C 8.632812 -13.5 9.671875 -13.296875 10.546875 -12.890625 C 11.429688 -12.492188 12.109375 -11.929688 12.578125 -11.203125 C 13.054688 -10.472656 13.296875 -9.601562 13.296875 -8.59375 C 13.296875 -7.59375 13.054688 -6.726562 12.578125 -6 C 12.097656 -5.28125 11.414062 -4.726562 10.53125 -4.34375 L 13.546875 0 Z M 10.140625 -8.59375 C 10.140625 -9.351562 9.894531 -9.9375 9.40625 -10.34375 C 8.914062 -10.75 8.203125 -10.953125 7.265625 -10.953125 L 4.71875 -10.953125 L 4.71875 -6.25 L 7.265625 -6.25 C 8.203125 -6.25 8.914062 -6.453125 9.40625 -6.859375 C 9.894531 -7.273438 10.140625 -7.851562 10.140625 -8.59375 Z M 10.140625 -8.59375 "/></g></g></g><g fill="#ffffff" fill-opacity="1"><g transform="translate(230.157539, 175.448748)"><g><path d="M 7.4375 -13.5 C 8.632812 -13.5 9.671875 -13.296875 10.546875 -12.890625 C 11.429688 -12.492188 12.109375 -11.929688 12.578125 -11.203125 C 13.054688 -10.472656 13.296875 -9.601562 13.296875 -8.59375 C 13.296875 -7.601562 13.054688 -6.738281 12.578125 -6 C 12.109375 -5.257812 11.429688 -4.691406 10.546875 -4.296875 C 9.671875 -3.910156 8.632812 -3.71875 7.4375 -3.71875 L 4.71875 -3.71875 L 4.71875 0 L 1.59375 0 L 1.59375 -13.5 Z M 7.265625 -6.265625 C 8.203125 -6.265625 8.914062 -6.46875 9.40625 -6.875 C 9.894531 -7.28125 10.140625 -7.851562 10.140625 -8.59375 C 10.140625 -9.351562 9.894531 -9.9375 9.40625 -10.34375 C 8.914062 -10.75 8.203125 -10.953125 7.265625 -10.953125 L 4.71875 -10.953125 L 4.71875 -6.265625 Z M 7.265625 -6.265625 "/></g></g></g><g fill="#ffffff" fill-opacity="1"><g transform="translate(244.268595, 175.448748)"><g><path d="M 12.046875 -2.5 L 12.046875 0 L 1.59375 0 L 1.59375 -13.5 L 11.796875 -13.5 L 11.796875 -10.984375 L 4.703125 -10.984375 L 4.703125 -8.0625 L 10.96875 -8.0625 L 10.96875 -5.625 L 4.703125 -5.625 L 4.703125 -2.5 Z M 12.046875 -2.5 "/></g></g></g><g fill="#ffffff" fill-opacity="1"><g transform="translate(257.203725, 175.448748)"><g><path d="M 13.984375 -13.5 L 13.984375 0 L 11.421875 0 L 4.6875 -8.1875 L 4.6875 0 L 1.59375 0 L 1.59375 -13.5 L 4.1875 -13.5 L 10.890625 -5.296875 L 10.890625 -13.5 Z M 13.984375 -13.5 "/></g></g></g><g fill="#ffffff" fill-opacity="1"><g transform="translate(272.779854, 175.448748)"><g><path d="M 4.390625 -10.953125 L 0.078125 -10.953125 L 0.078125 -13.5 L 11.84375 -13.5 L 11.84375 -10.953125 L 7.515625 -10.953125 L 7.515625 0 L 4.390625 0 Z M 4.390625 -10.953125 "/></g></g></g><g fill="#ffffff" fill-opacity="1"><g transform="translate(284.693278, 175.448748)"><g><path d="M 10.203125 0 L 7.59375 -3.765625 L 4.71875 -3.765625 L 4.71875 0 L 1.59375 0 L 1.59375 -13.5 L 7.4375 -13.5 C 8.632812 -13.5 9.671875 -13.296875 10.546875 -12.890625 C 11.429688 -12.492188 12.109375 -11.929688 12.578125 -11.203125 C 13.054688 -10.472656 13.296875 -9.601562 13.296875 -8.59375 C 13.296875 -7.59375 13.054688 -6.726562 12.578125 -6 C 12.097656 -5.28125 11.414062 -4.726562 10.53125 -4.34375 L 13.546875 0 Z M 10.140625 -8.59375 C 10.140625 -9.351562 9.894531 -9.9375 9.40625 -10.34375 C 8.914062 -10.75 8.203125 -10.953125 7.265625 -10.953125 L 4.71875 -10.953125 L 4.71875 -6.25 L 7.265625 -6.25 C 8.203125 -6.25 8.914062 -6.453125 9.40625 -6.859375 C 9.894531 -7.273438 10.140625 -7.851562 10.140625 -8.59375 Z M 10.140625 -8.59375 "/></g></g></g><g fill="#ffffff" fill-opacity="1"><g transform="translate(298.862162, 175.448748)"><g><path d="M 8.078125 -4.78125 L 8.078125 0 L 4.953125 0 L 4.953125 -4.8125 L -0.265625 -13.5 L 3.046875 -13.5 L 6.65625 -7.5 L 10.25 -13.5 L 13.328125 -13.5 Z M 8.078125 -4.78125 "/></g></g></g><g fill="#ffffff" fill-opacity="1"><g transform="translate(194.975381, 194.198747)"><g><path d="M 5.796875 0 L 4.3125 -2.140625 L 2.6875 -2.140625 L 2.6875 0 L 0.90625 0 L 0.90625 -7.671875 L 4.234375 -7.671875 C 4.910156 -7.671875 5.5 -7.554688 6 -7.328125 C 6.5 -7.097656 6.882812 -6.773438 7.15625 -6.359375 C 7.425781 -5.941406 7.5625 -5.453125 7.5625 -4.890625 C 7.5625 -4.316406 7.421875 -3.820312 7.140625 -3.40625 C 6.867188 -3 6.484375 -2.6875 5.984375 -2.46875 L 7.703125 0 Z M 5.765625 -4.890625 C 5.765625 -5.316406 5.625 -5.644531 5.34375 -5.875 C 5.0625 -6.101562 4.65625 -6.21875 4.125 -6.21875 L 2.6875 -6.21875 L 2.6875 -3.546875 L 4.125 -3.546875 C 4.65625 -3.546875 5.0625 -3.660156 5.34375 -3.890625 C 5.625 -4.128906 5.765625 -4.460938 5.765625 -4.890625 Z M 5.765625 -4.890625 "/></g></g></g><g fill="#ffffff" fill-opacity="1"><g transform="translate(203.028783, 194.198747)"><g><path d="M 6.84375 -1.421875 L 6.84375 0 L 0.90625 0 L 0.90625 -7.671875 L 6.703125 -7.671875 L 6.703125 -6.25 L 2.671875 -6.25 L 2.671875 -4.578125 L 6.234375 -4.578125 L 6.234375 -3.203125 L 2.671875 -3.203125 L 2.671875 -1.421875 Z M 6.84375 -1.421875 "/></g></g></g><g fill="#ffffff" fill-opacity="1"><g transform="translate(210.380936, 194.198747)"><g><path d="M 7.890625 0 L 7.875 -4.59375 L 5.625 -0.8125 L 4.8125 -0.8125 L 2.578125 -4.5 L 2.578125 0 L 0.90625 0 L 0.90625 -7.671875 L 2.375 -7.671875 L 5.25 -2.90625 L 8.078125 -7.671875 L 9.53125 -7.671875 L 9.546875 0 Z M 7.890625 0 "/></g></g></g><g fill="#ffffff" fill-opacity="1"><g transform="translate(220.844875, 194.198747)"><g><path d="M 4.625 0.125 C 3.820312 0.125 3.101562 -0.0390625 2.46875 -0.375 C 1.832031 -0.71875 1.332031 -1.191406 0.96875 -1.796875 C 0.601562 -2.398438 0.421875 -3.078125 0.421875 -3.828125 C 0.421875 -4.585938 0.601562 -5.265625 0.96875 -5.859375 C 1.332031 -6.460938 1.832031 -6.9375 2.46875 -7.28125 C 3.101562 -7.625 3.820312 -7.796875 4.625 -7.796875 C 5.414062 -7.796875 6.128906 -7.625 6.765625 -7.28125 C 7.398438 -6.9375 7.898438 -6.460938 8.265625 -5.859375 C 8.628906 -5.265625 8.8125 -4.585938 8.8125 -3.828125 C 8.8125 -3.078125 8.628906 -2.398438 8.265625 -1.796875 C 7.898438 -1.191406 7.398438 -0.71875 6.765625 -0.375 C 6.128906 -0.0390625 5.414062 0.125 4.625 0.125 Z M 4.625 -1.375 C 5.070312 -1.375 5.476562 -1.476562 5.84375 -1.6875 C 6.207031 -1.894531 6.492188 -2.1875 6.703125 -2.5625 C 6.910156 -2.9375 7.015625 -3.359375 7.015625 -3.828125 C 7.015625 -4.304688 6.910156 -4.726562 6.703125 -5.09375 C 6.492188 -5.46875 6.207031 -5.757812 5.84375 -5.96875 C 5.476562 -6.175781 5.070312 -6.28125 4.625 -6.28125 C 4.164062 -6.28125 3.753906 -6.175781 3.390625 -5.96875 C 3.023438 -5.757812 2.738281 -5.46875 2.53125 -5.09375 C 2.320312 -4.726562 2.21875 -4.304688 2.21875 -3.828125 C 2.21875 -3.359375 2.320312 -2.9375 2.53125 -2.5625 C 2.738281 -2.1875 3.023438 -1.894531 3.390625 -1.6875 C 3.753906 -1.476562 4.164062 -1.375 4.625 -1.375 Z M 4.625 -1.375 "/></g></g></g><g fill="#ffffff" fill-opacity="1"><g transform="translate(230.092582, 194.198747)"><g><path d="M 0.90625 -7.671875 L 4.390625 -7.671875 C 5.222656 -7.671875 5.957031 -7.507812 6.59375 -7.1875 C 7.238281 -6.875 7.738281 -6.425781 8.09375 -5.84375 C 8.445312 -5.269531 8.625 -4.597656 8.625 -3.828125 C 8.625 -3.066406 8.445312 -2.394531 8.09375 -1.8125 C 7.738281 -1.238281 7.238281 -0.789062 6.59375 -0.46875 C 5.957031 -0.15625 5.222656 0 4.390625 0 L 0.90625 0 Z M 4.296875 -1.453125 C 5.066406 -1.453125 5.679688 -1.664062 6.140625 -2.09375 C 6.597656 -2.519531 6.828125 -3.097656 6.828125 -3.828125 C 6.828125 -4.554688 6.597656 -5.132812 6.140625 -5.5625 C 5.679688 -5.988281 5.066406 -6.203125 4.296875 -6.203125 L 2.6875 -6.203125 L 2.6875 -1.453125 Z M 4.296875 -1.453125 "/></g></g></g><g fill="#ffffff" fill-opacity="1"><g transform="translate(239.143061, 194.198747)"><g><path d="M 6.84375 -1.421875 L 6.84375 0 L 0.90625 0 L 0.90625 -7.671875 L 6.703125 -7.671875 L 6.703125 -6.25 L 2.671875 -6.25 L 2.671875 -4.578125 L 6.234375 -4.578125 L 6.234375 -3.203125 L 2.671875 -3.203125 L 2.671875 -1.421875 Z M 6.84375 -1.421875 "/></g></g></g><g fill="#ffffff" fill-opacity="1"><g transform="translate(246.495215, 194.198747)"><g><path d="M 0.90625 -7.671875 L 2.6875 -7.671875 L 2.6875 -1.453125 L 6.53125 -1.453125 L 6.53125 0 L 0.90625 0 Z M 0.90625 -7.671875 "/></g></g></g><g fill="#ffffff" fill-opacity="1"><g transform="translate(253.113241, 194.198747)"><g><path d="M 0.90625 -7.671875 L 2.6875 -7.671875 L 2.6875 0 L 0.90625 0 Z M 0.90625 -7.671875 "/></g></g></g><g fill="#ffffff" fill-opacity="1"><g transform="translate(256.707143, 194.198747)"><g><path d="M 7.9375 -7.671875 L 7.9375 0 L 6.484375 0 L 2.65625 -4.65625 L 2.65625 0 L 0.90625 0 L 0.90625 -7.671875 L 2.375 -7.671875 L 6.1875 -3.015625 L 6.1875 -7.671875 Z M 7.9375 -7.671875 "/></g></g></g><g fill="#ffffff" fill-opacity="1"><g transform="translate(265.560406, 194.198747)"><g><path d="M 6.09375 -3.953125 L 7.71875 -3.953125 L 7.71875 -0.84375 C 7.300781 -0.53125 6.816406 -0.289062 6.265625 -0.125 C 5.710938 0.0390625 5.160156 0.125 4.609375 0.125 C 3.816406 0.125 3.101562 -0.0390625 2.46875 -0.375 C 1.832031 -0.71875 1.332031 -1.1875 0.96875 -1.78125 C 0.601562 -2.382812 0.421875 -3.066406 0.421875 -3.828125 C 0.421875 -4.585938 0.601562 -5.269531 0.96875 -5.875 C 1.332031 -6.476562 1.832031 -6.945312 2.46875 -7.28125 C 3.113281 -7.625 3.835938 -7.796875 4.640625 -7.796875 C 5.316406 -7.796875 5.925781 -7.679688 6.46875 -7.453125 C 7.019531 -7.234375 7.484375 -6.90625 7.859375 -6.46875 L 6.71875 -5.421875 C 6.164062 -5.992188 5.503906 -6.28125 4.734375 -6.28125 C 4.242188 -6.28125 3.804688 -6.175781 3.421875 -5.96875 C 3.046875 -5.769531 2.75 -5.484375 2.53125 -5.109375 C 2.320312 -4.742188 2.21875 -4.316406 2.21875 -3.828125 C 2.21875 -3.359375 2.320312 -2.9375 2.53125 -2.5625 C 2.75 -2.1875 3.046875 -1.894531 3.421875 -1.6875 C 3.796875 -1.476562 4.222656 -1.375 4.703125 -1.375 C 5.222656 -1.375 5.6875 -1.484375 6.09375 -1.703125 Z M 6.09375 -3.953125 "/></g></g></g></svg>