<?xml version="1.0" encoding="UTF-8"?>
<svg id="Layer_2" data-name="Layer 2" xmlns="http://www.w3.org/2000/svg" viewBox="0 0 473 209">
  <defs>
    <style>
      .cls-1 {
        fill: #d9d9d9;
        stroke-width: 0px;
      }
    </style>
  </defs>
  <g id="Layer_1-2" data-name="Layer 1">
    <path class="cls-1" d="M436.03,45.66c5.89,0,11.66.9,17.29,2.68,5.63,1.79,9.82,3.56,12.56,5.3l3.94,2.75-10.02,20.64c-.79-.54-1.89-1.25-3.3-2.11-1.42-.88-4.06-2.05-7.93-3.5-3.88-1.47-7.49-2.21-10.84-2.21-4.14,0-7.33.92-9.57,2.75-2.24,1.83-3.36,4.32-3.36,7.45,0,1.56.52,3,1.57,4.32,1.07,1.33,2.88,2.75,5.42,4.26,2.56,1.51,4.81,2.74,6.75,3.66,1.94.91,4.92,2.29,8.96,4.13,7.04,3.12,13.05,7.35,18.01,12.72,4.98,5.36,7.48,11.45,7.48,18.24s-1.12,12.21-3.36,17.07c-2.24,4.86-5.33,8.67-9.26,11.43-3.92,2.76-8.26,4.8-13.02,6.12-4.75,1.33-9.89,1.99-15.41,1.99-4.77,0-9.44-.51-14.02-1.51-4.59-1.01-8.42-2.26-11.5-3.76-3.07-1.52-5.84-3.01-8.3-4.48-2.47-1.47-4.27-2.71-5.42-3.72l-1.73-1.51,12.41-21.74c1.07.91,2.52,2.07,4.36,3.5,1.85,1.44,5.13,3.34,9.84,5.71,4.72,2.38,8.88,3.57,12.47,3.57,10.49,0,15.74-3.71,15.74-11.14,0-1.56-.39-3-1.15-4.32-.75-1.34-2.07-2.68-3.97-4.01-1.88-1.33-3.54-2.38-5-3.16-1.45-.77-3.84-1.97-7.14-3.57-3.29-1.62-5.74-2.84-7.33-3.66-6.6-3.41-11.71-7.65-15.32-12.75-3.62-5.09-5.42-10.57-5.42-16.44,0-10.18,3.61-18.5,10.84-24.96,7.22-6.48,15.45-9.72,24.7-9.72ZM189.68,160.59l-45.68-113.59h28l27.46,74.64,27.46-74.64h28l-45.68,113.59h-19.56ZM348.41,160.59l-17.44-63.75-17.44,63.75h-27.58l-31.03-113.59h27.58l18.62,77.92h.67l19.8-77.92h18.77l19.8,77.92h.67l18.62-77.92h27.46l-31.03,113.59h-27.46ZM4.33,25.46C-1.44,19.63-1.44,10.2,4.33,4.37c5.77-5.83,15.15-5.83,20.92,0l88.67,89.56c5.77,5.83,5.77,15.3,0,21.13L25.25,204.63c-5.77,5.83-15.15,5.83-20.92,0-5.77-5.83-5.77-15.3,0-21.13l78.19-79.02L4.33,25.46ZM118.22,179.11h133.01c8.17,0,14.78,6.67,14.78,14.93s-6.6,14.93-14.78,14.93H118.22c-8.18,0-14.78-6.67-14.78-14.93s6.6-14.93,14.78-14.93Z"/>
  </g>
</svg>