<?xml version="1.0" encoding="UTF-8"?>
<svg id="Layer_2" data-name="Layer 2" xmlns="http://www.w3.org/2000/svg" viewBox="0 0 202.91 77.69">
  <defs>
    <style>
      .cls-1 {
        fill: #2563eb;
        stroke-width: 0px;
      }
    </style>
  </defs>
  <g id="Layer_1-2" data-name="Layer 1">
    <path class="cls-1" d="M31.44,76.33L0,1.35h19.27l18.9,49.27L57.06,1.35h19.27l-31.44,74.98h-13.46ZM121.13,76.33l-12-42.08-12,42.08h-18.98L56.8,1.35h18.98l12.81,51.44h.46L102.67,1.35h12.92l13.63,51.44h.46L142.48,1.35h18.9l-21.35,74.98h-18.9ZM177.47,0c4.05,0,8.02.59,11.9,1.77,3.88,1.18,6.76,2.35,8.65,3.5l2.71,1.81-6.9,13.63c-.54-.36-1.3-.82-2.27-1.4-.97-.58-2.79-1.35-5.46-2.31-2.67-.97-5.16-1.46-7.46-1.46-2.85,0-5.04.6-6.58,1.81s-2.31,2.85-2.31,4.92c0,1.03.36,1.98,1.08,2.85.73.88,1.98,1.81,3.73,2.81,1.76,1,3.31,1.81,4.65,2.42,1.33.6,3.39,1.51,6.17,2.73,4.84,2.06,8.98,4.85,12.4,8.4,3.43,3.54,5.15,7.56,5.15,12.04s-.77,8.06-2.31,11.27-3.67,5.72-6.38,7.54c-2.7,1.82-5.68,3.17-8.96,4.04-3.27.88-6.8,1.31-10.6,1.31-3.28,0-6.49-.33-9.65-1-3.16-.67-5.79-1.49-7.92-2.48-2.11-1-4.02-1.98-5.71-2.96-1.7-.97-2.94-1.79-3.73-2.46l-1.19-1,8.54-14.35c.73.6,1.73,1.37,3,2.31,1.28.95,3.53,2.2,6.77,3.77,3.25,1.57,6.11,2.35,8.58,2.35,7.22,0,10.83-2.45,10.83-7.35,0-1.03-.27-1.98-.79-2.85-.52-.89-1.43-1.77-2.73-2.65-1.29-.88-2.44-1.57-3.44-2.08-1-.51-2.64-1.3-4.92-2.35-2.27-1.07-3.95-1.88-5.04-2.42-4.54-2.25-8.06-5.05-10.54-8.42-2.49-3.36-3.73-6.98-3.73-10.85,0-6.72,2.48-12.21,7.46-16.48,4.97-4.28,10.64-6.42,17-6.42Z"/>
  </g>
</svg>