<?xml version="1.0" encoding="UTF-8"?>
<svg id="Layer_2" data-name="Layer 2" xmlns="http://www.w3.org/2000/svg" xmlns:xlink="http://www.w3.org/1999/xlink" viewBox="0 0 294.92 268.45">
  <defs>
    <style>
      .cls-1 {
        fill: #fbf8f4;
      }

      .cls-1, .cls-2, .cls-3, .cls-4, .cls-5, .cls-6, .cls-7, .cls-8, .cls-9, .cls-10, .cls-11, .cls-12 {
        stroke-width: 0px;
      }

      .cls-2 {
        fill: url(#linear-gradient);
      }

      .cls-3 {
        fill: #0e71a9;
      }

      .cls-4 {
        fill: #1e5192;
      }

      .cls-5 {
        fill: #0b7faf;
      }

      .cls-6 {
        fill: #128eb8;
      }

      .cls-7 {
        fill: #195e9c;
      }

      .cls-8 {
        fill: #348;
      }

      .cls-9 {
        fill: url(#linear-gradient-4);
      }

      .cls-10 {
        fill: url(#linear-gradient-2);
      }

      .cls-11 {
        fill: url(#linear-gradient-3);
      }

      .cls-12 {
        fill: #0c9dba;
      }
    </style>
    <linearGradient id="linear-gradient" x1="137.76" y1="134.09" x2="13.45" y2="238.74" gradientUnits="userSpaceOnUse">
      <stop offset="0" stop-color="#f89e20"/>
      <stop offset="1" stop-color="#f14e3b"/>
    </linearGradient>
    <linearGradient id="linear-gradient-2" x1="278.5" y1="25.09" x2="182.58" y2="122.91" gradientUnits="userSpaceOnUse">
      <stop offset="0" stop-color="#f5ce1b"/>
      <stop offset="1" stop-color="#f6a51e"/>
    </linearGradient>
    <linearGradient id="linear-gradient-3" x1="179.58" y1="143.91" x2="77.69" y2="200.4" gradientUnits="userSpaceOnUse">
      <stop offset="0" stop-color="#0c77ac"/>
      <stop offset="1" stop-color="#344386"/>
    </linearGradient>
    <linearGradient id="linear-gradient-4" x1="217.99" y1="72.3" x2="133.58" y2="98.9" gradientUnits="userSpaceOnUse">
      <stop offset="0" stop-color="#0a93b4"/>
      <stop offset="1" stop-color="#1073ab"/>
    </linearGradient>
  </defs>
  <g id="Layer_1-2" data-name="Layer 1">
    <g>
      <path class="cls-1" d="M201.92,255.59c-37.69,17.16-76.7,17.46-114-1-17.18-8.5-28.97-20.45-30.75-20-1.68.42-11.35,17.86-24.75,24-3.43,1.57-9.29,2.92-13,2.5-4.7-.53-12.3-5.87-15-9.75-17.19-24.66,21.16-47.47,21.5-50.5.15-1.36-6.3-11.44-10-25.5C-17.88,46.83,128.14-54.6,239.67,32.6c1.32.13,9.8-13.6,16.5-18.5,27.1-19.85,63.9,17.02,14.25,51.25,36.25,75.37,7.26,155.75-68.5,190.24Z"/>
      <g>
        <g>
          <path class="cls-2" d="M142.93,129.6c3.19,5.79-.34,8.7-4.5,13.75-7.17,8.7-57.56,55.52-73.5,72-8.71,9-28.36,35.23-38.25,36.75-13.46,2.07-27.37-11.3-11.75-30.75,11.26-14.03,86.23-80.62,105.75-99.75,2.68.5,7.36-.52,7.75-.5,4.63.28,12.26,4.45,14.5,8.5Z"/>
          <path class="cls-10" d="M245.42,80.1c-15.88,15.73-31.73,31.45-46.5,48.25-1.72,1.53-1.97,2.79-4.5,3.25-.6.11-10.95-.34-11.5-.5-2.09-.6-11.53-10.84-12.5-13-.29-.65-1.09-2.71-1-3.25.84-5.03,62.33-64.16,71-73,10.61-10.82,25.45-35.66,41.75-22.75,20.62,16.34-18.6,42.34-29,52.5-2.74,2.68-5.1,5.88-7.75,8.5Z"/>
        </g>
        <path class="cls-11" d="M182.92,131.1q-46.12,46.5-92.25,93-7.37-4.87-14.75-9.75c32.52-31.15,62.61-64.54,94.5-96.25.97,2.16,10.41,12.4,12.5,13Z"/>
        <path class="cls-9" d="M142.93,129.6c-2.24-4.05-9.87-8.22-14.5-8.5q40.12-39.75,80.25-79.5,6.75,3.75,13.5,7.5l-79.25,80.5Z"/>
        <g>
          <path class="cls-8" d="M58.43,104.1c-1.65,5.38-2.27,7.85-3,13.5-1.98,15.43-1.02,30.86,1.5,46.25,6.68-6.9,12.8-14.38,19.5-21.25.85-.87,2.14-1.63,3-2.5,9.08,1.19,1.91,6.98,6.75,8.5q4.62-4.25,9.25-8.5c-15.03,14.87-29.35,30.49-45,44.75-13.15-34.84-14.11-64.23,4-97.25l4,16.5Z"/>
          <path class="cls-3" d="M98.43,137.09c4.77-3.98-.33-11.3-5.5-10.5,1.68-1.65,3.32-3.36,5-5,9.01-8.79,18.38-17.3,27.5-26,8.1-7.73,16.4-15.27,24.5-23-.16,1.9,1.38-.02,2.75,1,2.68,2,1.32,6.48,2,7,10.02-9.56,19.87-19.29,29.75-29,3.82-3.75,8.1-7.06,11.5-11.25-6.11-3.51-14.58-4.42-20-7.75,7.38,1.57,14.67,4.19,21.5,7.25-32.27,32.8-66.12,64.77-99,97.25Z"/>
          <path class="cls-4" d="M98.43,137.09c-1,.99-1.99,2-3,3q-4.62,4.25-9.25,8.5c-4.84-1.52,2.33-7.31-6.75-8.5,4.48-4.55,8.94-9.03,13.5-13.5,5.17-.8,10.27,6.52,5.5,10.5Z"/>
          <path class="cls-4" d="M62.93,92.1c-1.74,3.48-3.35,8.24-4.5,12l-4-16.5c2.57-4.69,4.88-8.18,8-12.5,2.77,6.42-1.52,10.09.5,17Z"/>
          <path class="cls-6" d="M184.42,51.6c-9.88,9.71-19.73,19.44-29.75,29-.68-.52.68-5-2-7-1.37-1.02-2.91.9-2.75-1,3.64-3.47,25.47-26.29,27.25-27,.68-.27.73,1.19,4,0,.42.34-.41,3.28,3.25,6Z"/>
          <g>
            <path class="cls-12" d="M175.92,32.6c5.42,3.33,13.89,4.24,20,7.75-3.4,4.19-7.68,7.5-11.5,11.25-3.66-2.72-2.83-5.66-3.25-6-3.27,1.19-3.32-.27-4,0-1.78.71-23.61,23.53-27.25,27-8.1,7.73-16.4,15.27-24.5,23-2.6.78-3.36,4.05-6.5,2.75,3.18-7.46-.66-9.52-1-11-1.78-7.65-2.37-15.37-4-23-.19-.89-2.42-3.5-2.5-4-.14-.85,1.05-4.27,1-4.5-.29-1.39-2.46-4.25-2.5-4.5-.41-2.47.11-4.26,0-6.5-.09-1.77-3.92-2.05,4.5-9.25,19.39-6.51,41.54-7.25,61.5-3Z"/>
            <path class="cls-6" d="M125.43,95.6c-9.12,8.7-18.49,17.21-27.5,26-1.15-.39-4.38,2.03-5,.25-.87-8.48-6.51-16.11-7-25-3.74-7.86-5.13-16.06-9-24.25,7.88-9.1,14.68-13.75,15-14.75,1.24-3.9-3.93-6.72-1.5-10.25,7.04-4.63,16.02-9.32,24-12-8.42,7.2-4.59,7.48-4.5,9.25.11,2.24-.41,4.03,0,6.5.04.25,2.21,3.11,2.5,4.5.05.23-1.14,3.65-1,4.5.08.5,2.31,3.11,2.5,4,1.63,7.63,2.22,15.34,4,23,.34,1.48,4.18,3.54,1,11,3.14,1.3,3.9-1.97,6.5-2.75Z"/>
            <path class="cls-3" d="M76.93,72.6c-4.7,5.42-10.82,13.14-14,19.5-2.02-6.91,2.27-10.58-.5-17,8.34-11.55,15.96-19.59,28-27.5-2.43,3.53,2.74,6.35,1.5,10.25-.32,1-7.12,5.65-15,14.75Z"/>
            <path class="cls-5" d="M97.93,121.6c-1.68,1.63-3.32,3.35-5,5-4.56,4.47-9.02,8.95-13.5,13.5-.86.87-2.15,1.63-3,2.5-8.21,2.78-14.46-18.06-21-25,.73-5.65,1.35-8.12,3-13.5,1.15-3.76,2.76-8.52,4.5-12,3.18-6.36,9.3-14.08,14-19.5,3.87,8.19,5.26,16.39,9,24.25.49,8.89,6.13,16.52,7,25,.62,1.78,3.85-.64,5-.25Z"/>
            <path class="cls-3" d="M76.43,142.59c-6.7,6.87-12.82,14.35-19.5,21.25-2.52-15.39-3.48-30.82-1.5-46.25,6.54,6.94,12.79,27.78,21,25Z"/>
          </g>
        </g>
        <g>
          <path class="cls-6" d="M245.42,80.1c22.58,52.8,10.38,102.62-36.5,136-.06-1.08,1.66-2.35,2.5-3,7.69-5.95,13.79-11.5,20-19,3.68-4.45,17.69-24.2,17.5-28.75-.01-.33-2.82-4.73-3.25-5.75l-3.25,1.5c4.33-10.96,6.54-23.51,7-35.25.56-14.26-2.27-27.3-1.5-28.5.45-.71,1.55.47,2-1,.23-.75-4.52-12.89-5.25-14.75l-8.25,8.25c.18,5.73,4.12-3.51,4.5,2-13.88,20.59-32.03,37.74-49,55.75-.73-.44,2.01-3.76,2-4.75-.02-1.69-2.3-2.22-1.75-6.75l-7.25,6.5c3.07-2.99,10.19-10,9.5-11,2.53-.46,2.78-1.72,4.5-3.25,14.77-16.8,30.62-32.52,46.5-48.25Z"/>
          <path class="cls-8" d="M121.93,218.09c-2.45,2.46-5.95,4.82-5.25,6,18.39,3.76,40.61,3.85,58.75-1.5,6.67.32,8.39-1.19,6.75,7q5.37-1.75,10.75-3.5c-23.82,11.82-51.54,15.02-77.25,7.5-2.25-.66-15.4-5.57-15.25-7.25,6.15-7.09,12.99-13.51,19.5-20.25.44,4.33,2.12,7.54,2,12Z"/>
          <path class="cls-5" d="M191.92,147.59c-7.36,7.81-14.49,15.81-22,23.5-3.28,3.36-6.69,6.65-10,10,3.23-8.78-.15-6.46-.5-7.25-.5-1.11.54-1.91.5-2-.15-.32-2.21-1.03-2-2.5.08-.57,6.86-7,8-8.25,6.03-6.6,12.63-12.29,19-18.5l7.25-6.5c-.55,4.53,1.73,5.06,1.75,6.75.01.99-2.73,4.31-2,4.75Z"/>
          <path class="cls-3" d="M165.93,161.09c-1.14,1.25-7.92,7.68-8,8.25-.21,1.47,1.85,2.18,2,2.5.04.09-1,.89-.5,2,.35.79,3.73-1.53.5,7.25-2.65,2.68-3.79,4.29-4,4.5-5.62,5.64-11.8,10.9-17.5,16.5,1.38-3.75-3.26-9.49-3-10.75.22-1.05,13.05-13.25,15-15.25,4.99-5.12,9.69-10.73,15.5-15Z"/>
          <path class="cls-7" d="M211.42,213.09c-.84.65-2.56,1.92-2.5,3-5.26,3.75-10.19,7.12-16,10q-5.37,1.75-10.75,3.5c1.64-8.19-.08-6.68-6.75-7,4.52-1.33,10.69-4.33,15-6.5,4.87-2.45,12.2-6.78,16.5-10,.11,2.11.62-.02.75,0,2.98.45,3.17,4.61,3.75,7Z"/>
          <path class="cls-7" d="M138.43,202.09c-5.46,5.36-11.1,10.58-16.5,16,.12-4.46-1.56-7.67-2-12,9.89-10.24,19.75-20.63,30.5-30-1.95,2-14.78,14.2-15,15.25-.26,1.26,4.38,6.99,3,10.75Z"/>
          <path class="cls-12" d="M242.42,161.09c-3.13,7.93-11.87,22-17.5,28.5-3.24,3.74-13.93,13.45-18,16.5-4.3,3.22-11.63,7.55-16.5,10-4.91.92-9.22,3.53-14,5-3.28-11.5-6.36-24.13-7-36.75-6.84-6.57-.9-7.23.5-13.25,7.51-7.69,14.64-15.69,22-23.5,16.97-18.01,35.11-35.16,49-55.75-.38-5.51-4.32,3.73-4.5-2l8.25-8.25c.73,1.86,5.48,14,5.25,14.75-.45,1.47-1.55.29-2,1-.77,1.2,2.06,14.23,1.5,28.5-.46,11.74-2.67,24.28-7,35.25Z"/>
          <path class="cls-5" d="M231.42,194.09c-3.37-4.85.72-5.33-6.5-4.5,5.63-6.49,14.36-20.56,17.5-28.5l3.25-1.5c.43,1.02,3.24,5.42,3.25,5.75.19,4.55-13.82,24.3-17.5,28.75Z"/>
          <path class="cls-3" d="M231.42,194.09c-6.21,7.5-12.31,13.05-20,19-.58-2.39-.77-6.55-3.75-7-.13-.02-.64,2.11-.75,0,4.07-3.05,14.76-12.76,18-16.5,7.22-.83,3.13-.35,6.5,4.5Z"/>
          <path class="cls-6" d="M155.93,185.59c-2.38,14.75,5.97,22.71,5,36.75,4.83,2.84,10.43.31,15.5-1.25,4.78-1.47,9.09-4.08,14-5-4.31,2.17-10.48,5.17-15,6.5-18.14,5.35-40.36,5.26-58.75,1.5-.7-1.18,2.8-3.54,5.25-6,5.4-5.42,11.04-10.64,16.5-16,5.7-5.6,11.88-10.86,17.5-16.5Z"/>
          <path class="cls-6" d="M176.42,221.09c-5.06,1.56-10.67,4.09-15.5,1.25.97-14.04-7.38-22-5-36.75.21-.21,1.35-1.82,4-4.5,3.31-3.35,6.72-6.64,10-10-1.4,6.02-7.34,6.68-.5,13.25.64,12.62,3.72,25.25,7,36.75Z"/>
        </g>
      </g>
    </g>
  </g>
</svg>